<svg width="200" height="200" viewBox="0 0 200 200" xmlns="http://www.w3.org/2000/svg">
  <!-- Background circle -->
  <circle cx="100" cy="100" r="95" fill="#FFFFFF" stroke="#8B4513" stroke-width="3"/>
  
  <!-- Chef hat -->
  <path d="M70 60 Q70 45 85 45 Q90 40 100 40 Q110 40 115 45 Q130 45 130 60 L125 75 L75 75 Z" fill="#FFFFFF" stroke="#8B4513" stroke-width="2"/>
  <ellipse cx="100" cy="75" rx="25" ry="8" fill="#8B4513"/>
  
  <!-- Face outline -->
  <circle cx="100" cy="110" r="35" fill="#F5E6D3" stroke="#8B4513" stroke-width="2"/>
  
  <!-- Eyes -->
  <circle cx="90" cy="105" r="3" fill="#8B4513"/>
  <circle cx="110" cy="105" r="3" fill="#8B4513"/>
  
  <!-- Mustache -->
  <path d="M85 115 Q100 120 115 115" stroke="#8B4513" stroke-width="3" fill="none"/>
  
  <!-- Text "Yassa" -->
  <text x="100" y="160" font-family="serif" font-size="24" font-weight="bold" text-anchor="middle" fill="#8B4513">Yassa</text>
  
  <!-- Text "Co" -->
  <text x="100" y="180" font-family="serif" font-size="18" font-style="italic" text-anchor="middle" fill="#8B4513">Co</text>
  
  <!-- Decorative elements -->
  <circle cx="60" cy="140" r="2" fill="#DC2626"/>
  <circle cx="140" cy="140" r="2" fill="#DC2626"/>
  <circle cx="80" cy="185" r="1.5" fill="#DC2626"/>
  <circle cx="120" cy="185" r="1.5" fill="#DC2626"/>
  
  <!-- Fork and spoon -->
  <path d="M45 120 L50 125 M47 118 L52 123 M49 116 L54 121" stroke="#8B4513" stroke-width="2"/>
  <ellipse cx="155" cy="122" rx="3" ry="8" fill="#8B4513"/>
  <line x1="155" y1="130" x2="155" y2="145" stroke="#8B4513" stroke-width="2"/>
</svg>
